<svg width="25" height="24" viewBox="0 0 25 24" fill="none" xmlns="http://www.w3.org/2000/svg">
    <mask id="mask0_11_210" style="mask-type:alpha" maskUnits="userSpaceOnUse" x="0" y="1" width="25" height="21">
        <path d="M9.2334 8.71485C9.2334 10.0956 8.15889 11.2148 6.8334 11.2148C5.50792 11.2148 4.4334 10.0956 4.4334 8.71485C4.4334 7.33414 5.50792 6.21486 6.8334 6.21486C8.15889 6.21486 9.2334 7.33414 9.2334 8.71485Z" fill="#1A936F"/>
        <path fill-rule="evenodd" clip-rule="evenodd" d="M0.636719 4.49874C0.636719 3.11804 1.71124 1.99875 3.03672 1.99875H22.2367C23.5622 1.99875 24.6367 3.11804 24.6367 4.49874V19.4987C24.6367 20.8794 23.5622 21.9987 22.2367 21.9987H20.6525C20.6473 21.9987 20.642 21.9987 20.6367 21.9987H3.5837C3.57918 21.9987 3.57466 21.9987 3.57014 21.9987H3.03672C1.71124 21.9987 0.636719 20.8794 0.636719 19.4987V4.49874ZM3.03672 3.87375H22.2367C22.5681 3.87375 22.8367 4.15357 22.8367 4.49874V12.2889L17.6224 6.99877L8.75132 15.9988L6.13814 13.3476L2.43672 17.1028V4.49874C2.43672 4.15357 2.70535 3.87375 3.03672 3.87375Z" fill="#1A936F"/>
    </mask>
    <g mask="url(#mask0_11_210)">
        <rect x="0.636719" y="-0.0020752" width="24" height="24" fill="#1A936F"/>
    </g>
</svg>
